Coordinates
version=1
nRows=8
nColumns=40
inDegrees=yes

Units are S.I. units (second, meters, Newtons, ...)
If the header above contains a line with 'inDegrees', this indicates whether rotational values are in degrees (yes) or radians (no).

endheader
time	pelvis_tilt	pelvis_list	pelvis_rotation	pelvis_tx	pelvis_ty	pelvis_tz	hip_flexion_r	hip_adduction_r	hip_rotation_r	knee_angle_r	knee_angle_r_beta	ankle_angle_r	subtalar_angle_r	mtp_angle_r	hip_flexion_l	hip_adduction_l	hip_rotation_l	knee_angle_l	knee_angle_l_beta	ankle_angle_l	subtalar_angle_l	mtp_angle_l	lumbar_extension	lumbar_bending	lumbar_rotation	arm_flex_r	arm_add_r	arm_rot_r	elbow_flex_r	pro_sup_r	wrist_flex_r	wrist_dev_r	arm_flex_l	arm_add_l	arm_rot_l	elbow_flex_l	pro_sup_l	wrist_flex_l	wrist_dev_l
     14.75000000000000000000	     11.39044230494044107616	     -3.19467736092575238516	   -178.03326774214488636972	      0.29645171219126154050	      0.80377301580335147602	     -0.93966736956508223333	     46.82904941025127953935	    -42.26442880145781089141	    -20.04543772283959768288	     37.61377395278806545775	      0.65648419957703396665	    -13.13928232196574263924	      0.00000000000000000000	      0.00000000000000000000	     45.44835674364865951702	    -32.83803196460498696752	    -19.55456667855047214744	     39.21373758442410917269	      0.68440883286124853946	     -6.74054796696028635239	      0.00000000000000000000	      0.00000000000000000000	    -59.68517196551454873088	      0.19081675660565369790	     -3.10535064657959969381	     53.30938317846807450451	    -11.64720443267139948773	     41.59455796298913554665	      7.15413188986466241914	     36.50203504523388176040	      0.00000000000000000000	      0.00000000000000000000	     62.41274692768412535315	    -13.89405777864934954380	     49.29062266573794914848	     16.15256583474490881258	     81.29144196997523863502	      0.00000000000000000000	      0.00000000000000000000
     14.75500000000000078160	     11.26094475023556640281	     -3.25904803760475747509	   -178.04954821001334153152	      0.29620829371480672521	      0.80501966312798034497	     -0.93981632030731221406	     46.50065471099247815800	    -42.20147834602320813246	    -20.09062018088403078764	     37.31711281837068128198	      0.65130648601874907566	    -13.28228391297132127136	      0.00000000000000000000	      0.00000000000000000000	     45.02131635415155130886	    -32.70587165039887622697	    -19.74496494905377019791	     38.83866081095187894334	      0.67786250821640126052	     -6.88430040736283643810	      0.00000000000000000000	      0.00000000000000000000	    -59.64108511994329120398	      0.13239521936139742042	     -3.16659746030891930957	     53.22171924872306192356	    -11.59398748163834902414	     41.51899784578627361498	      7.09463291821346953014	     36.77407691325917937775	      0.00000000000000000000	      0.00000000000000000000	     62.19587449348365026935	    -13.76382455831086204512	     48.78402369525719706189	     16.04612493962441988060	     79.08040078832486585725	      0.00000000000000000000	      0.00000000000000000000
     14.75999999999999978684	     11.26731439963084646649	     -3.15982237467288351596	   -177.98637132183588960288	      0.29613552107810725555	      0.80574487972470876240	     -0.93971950921958391501	     46.20314431569111945919	    -42.08026789237374032382	    -20.29838883305289343184	     37.03857907843526930947	      0.64644515517898248902	    -13.43422928105566960255	      0.00000000000000000000	      0.00000000000000000000	     45.02350942125021759921	    -32.68065760874537772906	    -19.61883600821768425249	     38.69925757473539107423	      0.67542946275648807486	     -6.97630753081832999385	      0.00000000000000000000	      0.00000000000000000000	    -59.40177574430757800883	      0.21969790039968101203	     -3.11345110666669899757	     52.98900202504925260882	    -11.63530332012803114594	     41.57807275933106438970	      7.21275015111793837974	     36.35563335691690411977	      0.00000000000000000000	      0.00000000000000000000	     62.08833158897237325391	    -13.89663419800892008027	     49.25328333250045886871	     16.12978187958865206042	     81.34302619057250183232	      0.00000000000000000000	      0.00000000000000000000
     14.76500000000000056843	     11.18337442649713864284	     -3.21118342272060530718	   -177.99359980559296445790	      0.29589426370774718489	      0.80690367324494438606	     -0.93991759128258123290	     45.93661475115820280735	    -42.01847727978628910250	    -20.34791269790330758838	     36.78484792642235134963	      0.64201671116147884799	    -13.47899381079621683455	      0.00000000000000000000	      0.00000000000000000000	     44.63822876031656505802	    -32.54871913317124665355	    -19.79587950824442188491	     38.27809586632740490586	      0.66807880426144450325	     -7.20015955769642612694	      0.00000000000000000000	      0.00000000000000000000	    -59.29824538107975229195	      0.15429549080606100309	     -3.14254780009056888801	     52.83326066873102888621	    -11.61108357264323309721	     41.48280680079362525703	      7.25536883389831910307	     36.44299027347123143272	      0.00000000000000000000	      0.00000000000000000000	     61.88556705935430812815	    -13.86216685071434007170	     49.22648816140645067208	     16.15696393281184128909	     79.56854046879227837508	      0.00000000000000000000	      0.00000000000000000000
     14.76999999999999957367	     11.21991174905565458175	     -3.26821906600375200469	   -178.01716924548722431609	      0.29587551676483608842	      0.80755480313747074472	     -0.93994852186752164691	     45.91367504746201433363	    -41.94195778722140488526	    -20.17654863117572006104	     36.57839125744794017692	      0.63841336252517533190	    -13.57491504940616522390	      0.00000000000000000000	      0.00000000000000000000	     44.49102937519276679268	    -32.43749048597143769257	    -19.86740717378039278174	     38.04059989848015277403	      0.66393371766229936082	     -7.26504331100090627871	      0.00000000000000000000	      0.00000000000000000000	    -59.03368741711300771158	      0.06107353185653493360	     -3.19166242347399942147	     52.65589862640026552754	    -11.57412525564141070333	     41.29569438719273222205	      7.18330721814919570534	     36.37937054213377052747	      0.00000000000000000000	      0.00000000000000000000	     61.78423015570487564219	    -14.13314700266866985601	     50.16408009529742884069	     16.38111132673962799799	     80.77352773775015748470	      0.00000000000000000000	      0.00000000000000000000
     14.77500000000000035527	     11.32675714382431664262	     -3.19579161523960575408	   -177.93990627401009874120	      0.29585179593892041439	      0.80817754851759115997	     -0.93997385293125779171	     45.78057819158166097395	    -41.83531274384415610257	    -20.32133349812360734177	     36.36312069811246061590	      0.63465618248216149055	    -13.59111312701555362992	      0.00000000000000000000	      0.00000000000000000000	     44.54967841656846161413	    -32.35536906217887320736	    -19.70256593883145157520	     37.79924998029139970868	      0.65972136694048666428	     -7.43710381590208147173	      0.00000000000000000000	      0.00000000000000000000	    -58.67253259907747064972	      0.15361754216004111506	     -3.21925724478128749695	     52.47244673231163858418	    -11.47116702867881699035	     41.47630053568015995324	      6.85401194222863185956	     36.56209500920870425489	      0.00000000000000000000	      0.00000000000000000000	     61.47212926622827922074	    -13.91416562579861704307	     49.42181022469201678859	     16.08562078940709483277	     78.61877281592208532857	      0.00000000000000000000	      0.00000000000000000000
     14.77999999999999936051	     11.16344346300712153663	     -3.09801984041218148036	   -177.83815965840963713163	      0.29552592739064914573	      0.80949612752777433400	     -0.93987963426362153285	     45.14877805533561883067	    -41.75462673862321594243	    -20.81266115861338050763	     36.00487540761702831560	      0.62840362263325255654	    -13.66408624780238234564	      0.00000000000000000000	      0.00000000000000000000	     44.25087207624167007225	    -32.27004106022757667915	    -19.63405256840073676017	     37.45023415967039426278	      0.65362989172910013203	     -7.59967507717777923659	      0.00000000000000000000	      0.00000000000000000000	    -58.63164065705366567727	      0.30252935072404468775	     -3.18947640492499351339	     52.26141865608420289391	    -11.57527783925460695968	     41.70976880405957842868	      7.03384816735974194302	     36.57251082603821146222	      0.00000000000000000000	      0.00000000000000000000	     61.21076810823323910427	    -13.79988959623578104186	     49.19181497731415220187	     15.99908142474932937205	     76.48025482800396446237	      0.00000000000000000000	      0.00000000000000000000
     14.78500000000000014211	     11.07392180167189543738	     -3.24023799723505678827	   -177.97862412416182564812	      0.29533499690435321972	      0.81044607122842116098	     -0.94025735048234782010	     45.12573034155452234018	    -41.66914539623284952086	    -20.42366423304945399764	     35.82610501288520055141	      0.62528349064009225433	    -13.88335135058638947214	      0.00000000000000000000	      0.00000000000000000000	     43.81717343891936167211	    -32.18181170968249205089	    -19.93346087915570308269	     37.15947695494789115855	      0.64855522118279729238	     -7.71217723514980235677	      0.00000000000000000000	      0.00000000000000000000	    -58.52226299667106701463	      0.02426291526298830770	     -3.21262629879098726704	     52.06892050873106825293	    -11.51968597515228864836	     41.12664013410522301228	      7.21054601737788480875	     36.44665676726335590274	      0.00000000000000000000	      0.00000000000000000000	     61.26427082183990080466	    -14.33200966141937371390	     50.80589831847504456164	     16.56457090102616902527	     80.30441702050380570199	      0.00000000000000000000	      0.00000000000000000000
